<mxfile host="app.diagrams.net" modified="2024-05-29T13:17:20.790Z" agent="Mozilla/5.0 (Macintosh; Intel Mac OS X 10_15_7) AppleWebKit/605.1.15 (KHTML, like Gecko) Version/17.4.1 Safari/605.1.15" etag="f_dyslU5kIgZvXB3HE_L" version="24.4.9" type="device">
  <diagram name="Seite-1" id="tuFJtAjsjJIvuz3v8sRS">
    <mxGraphModel dx="954" dy="624" grid="1" gridSize="10" guides="1" tooltips="1" connect="1" arrows="1" fold="1" page="1" pageScale="1" pageWidth="827" pageHeight="1169" math="0" shadow="0">
      <root>
        <mxCell id="0" />
        <mxCell id="1" parent="0" />
        <mxCell id="CSTQT9BCXVFmrYtYelTs-2" value="" style="ellipse;whiteSpace=wrap;html=1;aspect=fixed;fontSize=16;" parent="1" vertex="1">
          <mxGeometry x="440" y="200" width="80" height="80" as="geometry" />
        </mxCell>
        <mxCell id="CSTQT9BCXVFmrYtYelTs-4" value="(" style="endArrow=classic;html=1;exitX=0;exitY=0;exitDx=0;exitDy=0;entryX=1;entryY=0;entryDx=0;entryDy=0;curved=1;fontSize=20;labelPosition=center;verticalLabelPosition=top;align=center;verticalAlign=bottom;" parent="1" source="CSTQT9BCXVFmrYtYelTs-2" edge="1">
          <mxGeometry x="0.0697" y="9" width="50" height="50" relative="1" as="geometry">
            <mxPoint x="340" y="260" as="sourcePoint" />
            <mxPoint x="348.2842712474619" y="211.7157287525381" as="targetPoint" />
            <Array as="points">
              <mxPoint x="400" y="190" />
            </Array>
            <mxPoint as="offset" />
          </mxGeometry>
        </mxCell>
        <mxCell id="CSTQT9BCXVFmrYtYelTs-20" value=")" style="endArrow=classic;html=1;exitX=1;exitY=1;exitDx=0;exitDy=0;entryX=0;entryY=1;entryDx=0;entryDy=0;curved=1;fontSize=20;verticalAlign=top;spacing=4;startSize=0;labelPosition=center;verticalLabelPosition=bottom;align=center;" parent="1" target="CSTQT9BCXVFmrYtYelTs-2" edge="1">
          <mxGeometry width="50" height="50" relative="1" as="geometry">
            <mxPoint x="348.2842712474619" y="268.2842712474619" as="sourcePoint" />
            <mxPoint x="410" y="220" as="targetPoint" />
            <Array as="points">
              <mxPoint x="400" y="280" />
            </Array>
            <mxPoint as="offset" />
          </mxGeometry>
        </mxCell>
        <mxCell id="CSTQT9BCXVFmrYtYelTs-22" value="&lt;font style=&quot;font-size: 30px;&quot;&gt;2&lt;/font&gt;" style="ellipse;whiteSpace=wrap;html=1;aspect=fixed;fillColor=none;" parent="1" vertex="1">
          <mxGeometry x="443" y="203" width="74" height="74" as="geometry" />
        </mxCell>
        <mxCell id="sejmUncZQDxO1BBk2Uxj-2" value="&lt;font style=&quot;font-size: 30px;&quot;&gt;3&lt;/font&gt;" style="ellipse;whiteSpace=wrap;html=1;aspect=fixed;fillColor=none;" vertex="1" parent="1">
          <mxGeometry x="600" y="203" width="74" height="74" as="geometry" />
        </mxCell>
        <mxCell id="sejmUncZQDxO1BBk2Uxj-4" value="&lt;font style=&quot;font-size: 30px;&quot;&gt;1&lt;/font&gt;" style="ellipse;whiteSpace=wrap;html=1;aspect=fixed;fillColor=none;" vertex="1" parent="1">
          <mxGeometry x="286" y="203" width="74" height="74" as="geometry" />
        </mxCell>
        <mxCell id="sejmUncZQDxO1BBk2Uxj-5" value="]" style="endArrow=classic;html=1;exitX=0;exitY=0;exitDx=0;exitDy=0;entryX=1;entryY=0;entryDx=0;entryDy=0;curved=1;fontSize=20;labelPosition=center;verticalLabelPosition=top;align=center;verticalAlign=bottom;" edge="1" parent="1">
          <mxGeometry x="-0.0673" y="9" width="50" height="50" relative="1" as="geometry">
            <mxPoint x="613.72" y="212" as="sourcePoint" />
            <mxPoint x="510.00427124746193" y="211.7157287525381" as="targetPoint" />
            <Array as="points">
              <mxPoint x="561.72" y="190" />
            </Array>
            <mxPoint as="offset" />
          </mxGeometry>
        </mxCell>
        <mxCell id="sejmUncZQDxO1BBk2Uxj-6" value="[" style="endArrow=classic;html=1;exitX=1;exitY=1;exitDx=0;exitDy=0;entryX=0;entryY=1;entryDx=0;entryDy=0;curved=1;fontSize=20;verticalAlign=top;spacing=4;startSize=0;labelPosition=center;verticalLabelPosition=bottom;align=center;" edge="1" parent="1">
          <mxGeometry width="50" height="50" relative="1" as="geometry">
            <mxPoint x="510.00427124746193" y="268.2842712474619" as="sourcePoint" />
            <mxPoint x="613.72" y="268" as="targetPoint" />
            <Array as="points">
              <mxPoint x="561.72" y="280" />
            </Array>
            <mxPoint as="offset" />
          </mxGeometry>
        </mxCell>
        <mxCell id="sejmUncZQDxO1BBk2Uxj-7" value="" style="endArrow=classic;html=1;rounded=0;entryX=0.5;entryY=0;entryDx=0;entryDy=0;startArrow=baseDash;startFill=0;" edge="1" parent="1" target="CSTQT9BCXVFmrYtYelTs-2">
          <mxGeometry width="50" height="50" relative="1" as="geometry">
            <mxPoint x="480" y="160" as="sourcePoint" />
            <mxPoint x="440" y="300" as="targetPoint" />
          </mxGeometry>
        </mxCell>
      </root>
    </mxGraphModel>
  </diagram>
</mxfile>
